<?xml version="1.0" encoding="utf-8"?>
<!-- Generator: Adobe Illustrator 22.0.1, SVG Export Plug-In . SVG Version: 6.00 Build 0)  -->
<svg version="1.1" id="Layer_1" xmlns="http://www.w3.org/2000/svg" xmlns:xlink="http://www.w3.org/1999/xlink" x="0px" y="0px"
	 viewBox="0 0 151.2 230.4" style="enable-background:new 0 0 151.2 230.4;" xml:space="preserve">
<style type="text/css">
	.st0{fill:#FBEA72;}
	.st1{fill:#FEF59F;}
	.st2{fill:#EF3B39;}
	.st3{fill:#991B1E;}
	.st4{fill:#FFFFFF;stroke:#FCF187;stroke-width:3;stroke-miterlimit:10;}
	.st5{fill:#CA2D5B;stroke:#E26FAB;stroke-width:3;stroke-miterlimit:10;}
	.st6{fill:#663434;stroke:#993333;stroke-width:3;stroke-miterlimit:10;}
</style>
<g id="cupcake">
	<g>
		<path class="st0" d="M2.6,155.9l4.2,16.4c1.8,4.5,3,9.2,3.8,14l3.3,21.4c0.4,2.5,1.3,4.8,2.7,7l0,0c2.9,4.5,7.3,7.7,12.4,9.3
			l2.4,0.7c5.5,1.6,11.3,2.7,17,3l21.5,1.3c1.8,0.1,3.7,0.1,5.5,0l24.7-1.9c3.9-0.3,7.7-0.9,11.4-1.8l12.5-3
			c1.7-0.4,3.3-1.2,4.6-2.4l0,0c3.9-3.4,6.5-8.1,7.2-13.3l2.9-20.8c0.4-2.7,0.9-5.3,1.7-7.9l8.9-30c0,0,0.9-7,0-11.8
			c-1.9-10.1-27.8-35.3-67.7-37.1c-31.7-1.4-57,14-71.8,27.8c-1.1,1.1-2.2,2.3-3.1,3.7C1.8,137.8,0.3,147.2,2.6,155.9z"/>
		<path class="st1" d="M144.9,142.6c-2.6,15.1-32.9,27-69.7,27c-37,0-67.4-12-69.8-27.2c-0.1-0.6,12,21.5,70.3,21.5
			C127.6,163.9,145,141.9,144.9,142.6z"/>
	</g>
</g>
<g id="cherry">
	<g>
		<path class="st2" d="M109.2,53.8c0,17.1-13.8,31-30.9,31.1C60.5,85,46.5,70,47,52.3c0.7-26.4,20.4-24.6,28.7-23.1
			c2.3,0.4,4.4,0.5,6.6,0C90,27.5,109.2,25.4,109.2,53.8z"/>
		<path class="st3" d="M79.7,39.2c-2.2-1.9-0.4-11,4.3-20.9c4.7-10,10.5-17.2,13.4-16.6c0.1,0-3.6,2-11,17.7
			C79.9,33.4,79.8,39.3,79.7,39.2z"/>
		<path class="st1" d="M85.4,36c-0.6,2.7-3.7,4.5-7,4.1c-3.3-0.5-5.8-3-5.6-5.9c0-0.1,0.7,2.5,6,3.2C83.4,38,85.4,35.8,85.4,36z"/>
	</g>
</g>
<g id="topIcing">
	<g>
		<path class="st4" d="M37.9,62.8c0,0-12.5,8.2-14.3,16.3C21.2,89.7,26.1,94.9,36,97.7c8.9,2.5,30.4-2.3,30.4-2.3s-18-11.3-21.6-16
			C38.4,71.1,37.9,62.8,37.9,62.8z"/>
		<path class="st4" d="M39.3,56.6c0,0-3,8.2-1.1,14.4c2.7,8.8,9.1,16.6,20.7,23.4c11.6,6.7,30.1,6.7,30.1,6.7s-8.2-6.2-22.3-17.7
			C55.1,74,39.3,56.6,39.3,56.6z"/>
		<path class="st4" d="M45.8,56.6c0,0-2.7,5.5,0.5,10.9C55.1,82.1,62,85.4,75.8,93c9.7,5.3,35.7,11.6,35.7,11.6
			c-0.3-4.3-18.1-17.6-34-31.2C62,60,45.8,56.6,45.8,56.6z"/>
		<path class="st4" d="M98.6,81.9c0,0,3.4-9.2,2.7-12.8c-1.1-5.3-5.6-6.2-7.7-7.2c-4.5-2.1-12.3,0.8-12.3,0.8c0.5,4,4,8.5,8.3,13
			C93.3,79.5,98.6,81.9,98.6,81.9z"/>
		<path class="st4" d="M67.4,58.4c0,0-0.7,9,3,14c6.1,8.3,10.3,15.2,23.6,22.2c11.2,5.9,25.8,3.8,25.8,3.8
			C123.1,99,99.9,78.7,95,74.9C79,62.2,67.4,58.4,67.4,58.4z"/>
		<path class="st4" d="M121.9,96.5c0,0,9.5-9.6,8-14.1c-2.3-6.7-11.1-10-13.9-11c-15.5-5.7-27-0.1-27-0.1c1.4,5.1,8.9,13.1,15.8,17
			C117.7,95.5,121.9,96.5,121.9,96.5z"/>
	</g>
</g>
<g id="midIcing">
	<g>
		<path class="st5" d="M20.1,92.3c0,0-7,3.4-7.3,6.6s3.5,13,11.6,17.1s31.3,4.3,31.3,4.3s-22.4-9.7-26.9-13.8
			C20.8,99.4,20.1,92.3,20.1,92.3z"/>
		<path class="st5" d="M20,90.4c0,0,0.2,7.5,4.4,12.1c10.4,11.4,31.3,18.6,43.6,22.1c8.7,2.5,24.5-4.2,24.5-4.2s-14.5-9.5-32-14
			C46.7,102.7,20,90.4,20,90.4z"/>
		<path class="st5" d="M112.7,120c0,0,0.2-3.9-4.7-7.7c-13.5-10.3-30-15-45.4-18.5c-11.7-2.7-30.3,1.5-30.3,1.5
			c1.9,3.9,24.9,13.9,44.7,20.8C96.4,122.8,112.7,120,112.7,120z"/>
		<path class="st5" d="M130,114.6c0,0,6.1-7.8,6.5-11.4c0.6-5.4-3.5-7.6-5.2-9.2c-3.6-3.4-12-3-12-3c-0.7,4,1.3,9.4,4,14.9
			C125.7,110.7,130,114.6,130,114.6z"/>
		<path class="st5" d="M126.4,110.6c0,0,5.7-8.6,3.9-11.8c-2.7-4.7-9.8-5.8-12.1-6.2c-12.5-2-20.3,3.9-20.3,3.9
			c1.8,3.6,8.6,8.5,14.4,10.4C123.1,110.5,126.4,110.6,126.4,110.6z"/>
		<path class="st5" d="M126.1,116.1c0,0,0.6-5.2-4.5-8.7c-8.4-5.8-11.3-8-26.2-10.2c-12.5-1.9-18.3,0.9-18.3,0.9
			c-3.3,0.5,16.4,10,22.2,12C118.6,116.8,126.1,116.1,126.1,116.1z"/>
	</g>
</g>
<g id="bottomIcing">
	<g>
		<path class="st6" d="M12,110.4c0,0-8.1,5.9-8.5,11.3c-0.3,5.4,4,22.3,13.5,29.2c9.4,6.9,36.4,7.4,36.4,7.4s-26.1-16.6-31.3-23.5
			C12.8,122.6,12,110.4,12,110.4z"/>
		<path class="st6" d="M11.8,107.2c0,0,0.3,12.9,5.1,20.7c12.2,19.5,36.5,31.7,50.7,37.7c10.1,4.2,28.5-7.3,28.5-7.3
			s-16.8-16.2-37.3-24C42.9,128.2,11.8,107.2,11.8,107.2z"/>
		<path class="st6" d="M119.8,157.8c0,0,0.3-6.7-5.5-13.1C98.6,127,79.4,119,61.5,113.1c-13.7-4.5-35.2,2.6-35.2,2.6
			c2.2,6.6,29,23.7,52.1,35.5C100.8,162.6,119.8,157.8,119.8,157.8z"/>
		<path class="st6" d="M143.2,135.8c0,0,0.3-16.8-1.8-22.2c-3.2-8-8.5-6.8-11.2-7.3c-5.7-0.9-13.3,8.1-13.3,8.1
			c2.1,6.2,7.7,11.6,14,16.3C136.5,134.9,143.2,135.8,143.2,135.8z"/>
		<path class="st6" d="M136.4,143.3c0,0,6.6-14.7,4.5-20.1c-3.2-8-11.4-9.9-14.1-10.5c-14.5-3.4-23.6,6.7-23.6,6.7
			c2.1,6.2,10,14.5,16.8,17.7C132.5,143.1,136.4,143.3,136.4,143.3z"/>
		<path class="st6" d="M133.1,149.3c0,0,0.7-8.9-5.2-14.9c-9.8-9.9-13.1-13.6-30.5-17.5c-14.6-3.2-21.2,1.6-21.2,1.6
			c-3.8,0.9,19.1,17.1,25.8,20.6C124.4,150.5,133.1,149.3,133.1,149.3z"/>
	</g>
</g>
</svg>
